<svg width="494" height="494" xmlns="http://www.w3.org/2000/svg" xmlns:xlink="http://www.w3.org/1999/xlink" overflow="hidden"><defs><clipPath id="clip0"><rect x="0" y="0" width="494" height="494"/></clipPath></defs><g clip-path="url(#clip0)"><rect x="0" y="0" width="494" height="494" fill="#FFFFFF"/><path d="M363.782 145.195 363.782 134.39C358.728 131.793 354.859 129.929 352.402 129.354 351.234 129.057 347.94 128.622 346.772 128.622 344.036 128.186 343.74 129.354 344.036 130.783 344.751 133.954 348.202 135.244 349.23 135.105 352.402 134.529 353.412 135.819 355.713 136.69 357.142 137.126 360.749 137.98 359.739 138.991 358.588 140.141 358.449 139.13 357.281 139.862 356.27 140.577 352.541 138.416 351.234 139.566 350.519 140.298 351.391 142.459 349.944 142.738 349.09 142.895 347.783 141.588 346.633 140.873 343.322 139.008 339.854 135.68 336.56 134.251 332.952 132.804 332.656 134.529 333.092 136.847 333.231 138.154 333.092 138.712 334.242 141.169 335.532 143.766 342.747 145.056 345.343 147.652 346.929 149.099 348.376 149.535 347.644 150.249 346.354 152.41 345.187 154.135 342.886 155.007 340.725 156.018 332.081 146.938 331.942 149.535 332.22 151.539 333.806 153.996 334.103 156.157 334.678 159.329 334.678 161.908 334.835 162.779 335.41 164.801 339.296 165.655 343.758 164.209 345.64 163.494 347.94 162.344 349.944 161.194 352.68 159.608 355.573 153.264 357.142 154.135 360.889 156.157 361.028 156.872 363.764 160.183L363.764 160.183 363.764 150.389C360.889 148.803 358.431 147.356 359.303 146.363 359.878 145.631 361.603 145.213 363.764 145.213ZM346.633 118.827C347.783 118.827 354.702 109.608 356.427 106.436 356.863 104.572 358.292 102.55 359.163 101.696 360.61 100.546 361.621 100.825 362.196 101.835 362.91 103.143 362.771 105.582 362.056 109.033 361.621 111.333 360.906 110.34 360.47 111.055 358.013 114.087 355.294 116.963 353.709 119.124 352.698 120.256 354.284 121.703 355.155 121.267 358.031 117.817 361.202 113.198 363.799 109.887L363.799 119.542 363.66 119.681C361.934 121.563 360.924 120.692 360.052 122.853 360.192 123.428 362.213 123.864 363.799 123.864L363.799 131.497C362.928 130.922 361.917 130.486 361.202 130.051 360.627 129.754 359.617 129.179 358.466 129.04 357.595 128.9 356.445 129.476 355.573 129.04 354.284 128.325 353.273 127.593 352.558 127.175 351.687 126.6 351.112 126.461 349.944 125.885 348.794 125.31 346.494 124.021 344.193 124.16 342.032 124.3 339.435 127.471 337.71 128.186 336.124 128.9 334.678 129.632 333.388 130.207 331.802 130.922 330.513 131.497 328.927 130.783 326.626 129.772 327.201 125.589 328.491 124.439 330.513 122.853 332.238 121.563 333.824 119.838 334.835 118.688 335.41 117.102 336.281 116.231 337.152 115.377 338.146 115.377 339.017 115.22 340.028 114.924 341.178 114.645 341.91 115.499 342.625 116.213 342.625 117.224 343.357 117.956 344.367 118.967 345.221 118.967 346.668 118.827L346.668 118.827ZM363.782 150.371C364.653 150.946 365.664 151.521 366.657 152.096 367.389 152.532 367.947 152.672 368.679 152.968L368.679 162.326C366.953 162.605 364.793 161.455 363.782 160.165L363.782 150.371ZM368.679 146.049 368.679 137.126C367.232 136.255 365.943 135.54 364.653 134.808L363.782 134.39 363.782 145.195C365.071 145.195 366.657 145.335 367.807 145.91 368.086 145.91 368.383 146.049 368.679 146.049L368.679 146.049ZM363.782 109.887C364.793 108.441 365.786 107.151 366.657 106.297 367.389 105.443 368.104 104.293 368.679 103.404L368.679 113.634C368.4 113.913 368.243 114.209 367.964 114.488 368.104 114.627 368.261 114.767 368.679 114.924L368.679 128.029C367.964 128.168 368.104 128.029 367.529 128.465 367.389 128.744 368.104 129.476 368.679 129.615L368.679 134.512 368.4 134.373C366.814 133.362 365.228 132.351 363.782 131.497L363.782 123.864C364.496 123.864 365.228 123.724 365.507 123.289 367.389 121.424 368.243 120.256 366.1 119.402 365.943 119.542 364.932 118.531 363.782 119.542L363.782 109.887 363.782 109.887ZM374.012 138.137 374.012 131.218C373.733 130.922 373.437 130.347 373.437 130.207 373.733 129.911 373.872 129.772 374.012 129.772L374.012 121.267C373.437 121.267 372.722 121.128 372.565 120.988 373.001 120.134 373.14 120.134 374.012 119.699L374.012 119.699 374.012 112.937C373.872 113.216 373.576 113.669 373.14 113.948 372.129 114.958 369.829 115.255 368.679 114.958L368.679 128.064 368.818 127.907C369.533 127.768 369.393 128.482 369.533 128.482 369.968 129.197 369.812 129.354 368.818 129.632L368.679 129.632 368.679 134.529C370.7 135.837 372.565 137.126 374.012 138.137ZM368.679 152.968C369.55 153.247 370.265 153.403 370.404 153.979 371.258 156.854 371.415 157.272 370.247 160.74 369.968 161.751 369.393 162.187 368.661 162.326L368.661 152.968 368.661 152.968ZM374.012 145.335C373.576 145.038 373.001 144.899 372.286 144.759 371.136 144.899 370.265 146.345 368.679 146.049L368.679 137.126C370.7 138.416 372.705 139.723 374.012 140.577L374.012 145.335 374.012 145.335ZM368.679 103.404C369.254 102.254 369.829 101.382 370.544 101.382 371.833 101.382 373.28 102.968 373.994 104.118L373.994 109.312C373.855 109.172 373.559 109.016 373.262 109.016 372.827 109.016 372.687 109.451 372.548 109.591 371.101 111.037 369.812 112.187 368.661 113.634L368.661 103.404 368.661 103.404ZM374.012 104.136C374.151 104.293 374.308 104.415 374.308 104.572 374.726 105.582 375.754 104.293 376.469 104.572 377.915 105.007 379.205 106.158 379.344 107.168 379.641 108.319 380.076 109.608 380.791 110.201L380.791 124.456C380.495 124.317 380.355 124.178 380.198 124.021 379.344 123.585 379.066 124.596 378.769 125.188 378.63 125.624 379.066 126.339 379.78 126.617 380.198 127.053 380.495 127.332 380.791 127.628L380.791 136.551C380.634 136.69 380.634 136.987 380.791 137.126L380.791 150.232C378.769 148.803 376.765 146.624 374.012 145.335L374.012 140.577C374.447 140.716 374.726 141.013 375.022 141.152 375.894 141.727 377.044 141.152 376.765 140.298 376.765 140.002 375.615 139.287 374.029 138.137L374.029 131.218C374.325 131.358 374.465 131.497 374.744 131.497 375.179 131.34 375.911 131.497 375.911 130.783 375.772 130.347 375.772 130.068 375.04 129.772 374.622 129.493 374.325 129.493 374.029 129.772L374.029 121.267C374.465 121.267 374.604 121.128 374.744 120.988 375.615 120.256 375.911 119.978 375.022 119.542 374.883 119.681 374.744 119.402 374.012 119.681L374.012 112.919C375.022 111.473 375.179 110.183 374.012 109.312L374.012 104.118ZM380.791 137.126 380.93 137.126C385.531 139.287 386.542 140.437 387.274 144.045 387.849 147.06 388.842 149.221 386.42 150.964 384.259 151.835 382.516 151.242 380.791 150.249L380.791 137.144ZM380.791 110.183C381.227 110.619 381.802 110.758 382.516 110.619 384.974 110.34 386.42 105.286 389.296 107.011 390.881 108.301 390.881 111.037 391.021 112.641 391.021 114.645 389.731 115.655 384.695 116.527 384.416 116.666 384.259 116.527 383.405 117.381 382.691 118.531 384.695 119.681 382.691 121.424 381.68 122.295 385.862 125.607 386.141 126.164 386.437 126.896 387.431 126.321 387.291 125.171 387.152 124.875 386.995 123.724 386.577 122.714 386.002 120.988 385.13 119.124 385.566 118.392 386.002 117.381 387.727 118.392 389.609 119.681 391.038 120.692 393.792 120.692 394.646 121.982 395.657 123.289 396.528 123.846 395.221 129.04 394.925 129.911 393.339 130.469 391.91 130.905 389.609 131.776 388.32 133.066 386.002 133.937 384.712 134.512 381.54 135.662 380.808 136.516L380.808 127.593C381.244 127.872 381.662 128.029 382.098 128.029 382.516 127.872 383.109 127.158 382.952 126.739 382.377 125.868 381.505 125.014 380.791 124.439L380.791 110.183 380.791 110.183Z" fill="#00561F" fill-rule="evenodd"/><path d="M278.492 68.549C281.663 69.5598 283.824 69.6992 283.964 69.1241 284.818 66.5274 285.985 61.9265 286.125 58.1796 286.282 56.3148 287.867 55.5829 289.018 55.3041 291.754 54.4501 292.625 53.997 293.915 54.4501 296.233 55.4609 297.522 57.4651 298.673 60.0618 299.108 61.3514 300.276 59.9223 297.662 65.534 296.512 68.2701 296.808 68.7058 297.226 69.2809 298.376 70.1523 299.823 69.9954 302.123 69.9954 304.877 69.856 306.585 66.2485 310.053 73.4461 310.61 74.3175 310.767 75.4677 309.6 76.4785 308.153 77.6287 305.434 77.7681 302.106 78.6395 297.784 79.6503 291.597 78.4826 291.736 81.3756 292.608 88.5732 297.209 99.5351 304.702 108.319 306.567 110.619 309.164 112.78 312.196 114.505 316.518 116.963 320.108 118.967 317.529 119.542 313.486 120.413 299.805 119.124 296.634 116.231 293.322 113.059 286.543 92.0238 285.55 87.8586 285.393 87.7192 285.114 87.5624 284.818 87.998 281.524 92.1806 274.588 99.8139 269.116 102.254 266.676 103.265 263.922 101.679 263.208 100.668 262.354 99.6571 256.01 96.4852 255.417 94.0454 255.278 92.6163 256.132 92.7558 256.864 92.8952 265.787 94.7774 267.669 92.4595 270.109 91.4487 276.592 88.7126 279.328 81.6544 278.753 81.2188 270.388 79.7723 267.373 80.0685 265.647 76.4785 263.19 65.0983 267.669 64.5232 272.27 66.2485 274.57 67.2593 277.603 68.4095 278.457 68.5664Z" fill="#00561F" fill-rule="evenodd"/><path d="M179.974 91.6055C181.124 91.4661 182.135 91.6055 183.564 92.7558 187.468 95.3525 188.6 100.389 190.483 102.986 191.197 102.986 192.504 102.114 194.073 101.121 196.094 99.6745 198.395 98.228 197.976 97.6529 196.373 94.6205 187.886 74.5963 186.161 71.9996 186.021 71.7208 185.446 70.9888 185.307 70.71 182.135 66.5274 185.882 63.2336 187.328 62.7979 189.629 62.0834 196.112 64.2444 196.251 66.5448 195.972 69.0021 198.412 74.7531 200.713 80.2254 202.874 84.8437 204.756 89.4445 205.767 91.0304 206.342 92.4595 211.378 88.1549 212.964 86.4296 215.125 84.9831 211.239 77.5067 212.668 75.1888 213.243 74.0386 219.43 72.4527 222.462 76.9142 223.909 79.5109 224.623 83.2578 225.338 86.7084 225.913 89.1657 226.784 92.1806 227.202 93.1914 227.638 94.3417 225.198 100.825 224.187 102.55 222.166 104.136 218.855 98.9425 217.548 96.067 216.816 94.4811 216.676 93.906 216.101 93.7665 214.655 94.2022 211.343 96.5027 209.757 98.5243 208.886 99.5351 209.182 101.417 207.875 102.428 201.828 104.868 196.199 108.772 195.781 110.061 195.484 110.776 193.62 114.523 193.463 115.394 193.323 116.248 190.866 116.544 190.291 116.98 188.984 118.287 186.98 115.969 184.244 114.383 181.368 112.937 182.083 111.072 181.943 108.04 181.943 104.728 180.078 99.5351 178.353 96.2238 177.482 94.4985 176.471 92.4769 179.939 91.623Z" fill="#00561F" fill-rule="evenodd"/><path d="M110.525 130.207C111.675 129.632 111.815 128.482 112.129 126.757 113.418 122.156 113.558 120.413 115.004 117.398 112.704 115.237 110.107 113.216 107.946 111.055 107.528 110.619 106.935 110.34 106.499 110.201 105.053 109.765 104.199 108.179 104.199 106.314L104.199 105.722C104.199 104.293 104.635 102.707 105.646 101.138 106.203 100.267 111.693 98.2454 113.279 99.8313 115.579 102.132 118.036 105.164 120.494 106.889 120.633 106.75 120.929 106.454 121.208 106.314L121.208 125.467C120.929 125.188 120.633 125.031 120.494 124.892 119.622 124.892 119.762 126.042 119.762 126.478 119.187 128.639 118.036 130.225 116.59 131.079 115.736 131.358 119.047 133.972 121.208 134.965L121.208 150.964C120.773 150.824 120.354 150.667 119.762 150.528 117.601 150.389 115.736 150.389 113.993 148.646 112.983 146.485 112.407 145.474 111.972 144.045 111.693 143.47 111.257 142.895 110.682 142.18 108.957 140.298 107.667 138.573 106.656 136.133 106.221 134.686 107.092 130.661 110.543 130.225ZM121.191 106.297C122.341 105.286 123.788 103.84 125.217 102.254 126.506 100.389 127.238 97.0603 128.528 95.4919 128.824 95.1956 129.103 95.0562 129.399 94.9168L129.399 107.011C127.534 107.726 125.949 110.619 125.513 111.909 125.652 112.78 127.674 115.22 129.399 116.806L129.399 150.807C128.528 151.678 127.378 152.393 126.227 152.532 124.938 152.672 123.491 151.521 121.191 150.946L121.191 134.948C121.905 135.383 122.637 135.523 122.916 135.227 125.077 133.501 125.373 133.083 125.949 130.765 126.227 129.894 122.916 126.722 121.191 125.432L121.191 106.279ZM129.399 94.9168C131.996 93.3309 136.893 93.4703 139.193 94.4811 141.354 95.6313 141.651 98.0886 141.058 99.8139L140.483 101.121C139.908 102.846 140.64 107.447 141.198 107.883 141.912 108.754 142.505 109.329 143.934 109.033 145.084 109.19 147.106 113.494 146.234 115.516 145.955 116.231 145.816 116.963 144.805 118.113 142.365 120.413 140.919 124.16 140.204 127.907 147.698 135.401 154.181 142.738 161.379 150.389 164.829 154.711 167.147 159.608 165.422 161.769 163.975 163.058 159.375 161.472 154.321 156.732L133.442 137.144C132.432 138.73 131.421 141.326 130.131 144.341L130.131 146.938C130.271 147.809 130.706 148.82 130.427 149.535 130.131 149.97 129.852 150.389 129.417 150.824L129.417 116.823C130.427 117.834 131.438 118.548 131.717 118.409 133.442 117.119 133.599 113.669 133.164 112.362 132.728 110.497 131.874 107.743 129.852 106.889 129.713 107.046 129.556 107.046 129.417 107.046L129.417 94.9516Z" fill="#00561F" fill-rule="evenodd"/><path d="M247 0.999955C110.595 0.999955 0 111.577 0 248 0 384.422 110.595 495.017 247 495.017 383.405 495.017 494 384.422 494 248 494 111.577 383.422 0.999955 247 0.999955ZM247 478.705C119.588 478.705 16.2947 375.412 16.2947 248 16.2947 120.587 119.588 17.2947 247 17.2947 374.412 17.2947 477.705 120.587 477.705 248 477.705 375.412 374.412 478.705 247 478.705ZM247 24.0043C123.3 24.0043 23.0043 124.3 23.0043 248 23.0043 371.7 123.3 471.996 247 471.996 370.7 471.996 470.996 371.718 470.996 248 470.996 124.282 370.7 24.0043 247 24.0043ZM247 467.308C125.879 467.308 27.6923 369.121 27.6923 248 27.6923 126.879 125.879 28.6923 247 28.6923 368.121 28.6923 466.29 126.879 466.29 247.983 466.29 369.086 368.104 467.29 247 467.29Z" fill="#00561F" fill-rule="evenodd"/><path d="M97.228 211.855 84.9765 208.684 85.2902 207.586C88.4794 207.934 91.3027 207.359 93.7425 205.843 96.1824 204.344 97.7334 202.392 98.4131 200.039 98.9359 198.21 98.8662 196.624 98.1866 195.264 97.5069 193.922 96.5309 193.068 95.2587 192.702 94.4571 192.476 93.6728 192.458 92.9409 192.65 91.9475 192.929 90.8844 193.522 89.7168 194.445 88.8803 195.125 87.2769 196.763 84.9068 199.377 81.5781 203.054 78.7897 205.372 76.4893 206.331 74.2063 207.272 71.8536 207.394 69.4486 206.714 66.3988 205.843 64.1158 203.908 62.5996 200.893 61.0834 197.896 60.8394 194.55 61.8851 190.89 62.1988 189.74 62.6344 188.694 63.1573 187.736 63.6801 186.777 64.4818 185.609 65.5797 184.25 66.1897 183.501 66.5731 182.839 66.7299 182.281 66.8693 181.81 66.817 181.27 66.6079 180.643 66.3988 180.015 65.9631 179.44 65.3183 178.917L65.6145 177.924 79.3997 181.845 79.1209 182.839C75.0254 182.525 71.627 183.204 68.9432 184.878 66.2768 186.551 64.5515 188.694 63.8195 191.291 63.2444 193.295 63.3315 195.055 64.0809 196.571 64.8303 198.088 65.9457 199.046 67.3922 199.447 68.2461 199.691 69.1523 199.708 70.0934 199.482 71.0345 199.255 71.993 198.785 73.0038 198.053 73.9972 197.338 75.4088 195.944 77.2561 193.905 79.8354 191.047 81.9093 189.06 83.4603 187.927 85.0288 186.795 86.6321 186.045 88.2703 185.679 89.9085 185.313 91.5815 185.366 93.2894 185.853 96.1998 186.673 98.3608 188.45 99.8073 191.169 101.254 193.888 101.498 196.868 100.574 200.109 100.243 201.294 99.755 202.41 99.1625 203.438 98.7094 204.222 98.0123 205.128 97.0886 206.174 96.165 207.22 95.6247 207.986 95.4853 208.457 95.3459 208.927 95.3982 209.328 95.5899 209.677 95.799 210.025 96.4264 210.479 97.4546 211.019L97.228 211.82Z" fill="#00561F"/><path d="M95.4853 212.727 92.8363 232.141 91.8081 232.002 91.9475 231.026C92.1566 229.562 92.1392 228.551 91.8952 227.958 91.6512 227.366 91.3027 226.93 90.7973 226.616 90.2919 226.303 88.9674 226.006 86.8238 225.728L68.4029 223.218C65.0394 222.765 62.7739 222.713 61.6062 223.061 60.4386 223.427 59.4278 224.124 58.5564 225.205 57.6676 226.268 57.1099 227.68 56.8834 229.457 56.6045 231.496 56.8311 233.291 57.5456 234.842 58.2776 236.411 59.3755 237.648 60.8917 238.589 62.4079 239.513 65.144 240.262 69.1523 240.802L84.4885 242.894C86.1616 243.12 87.3989 243.103 88.1657 242.859 88.9325 242.597 89.4902 242.231 89.8388 241.726 90.379 240.959 90.745 239.809 90.9541 238.293L91.9824 238.432 90.2048 251.451 89.1765 251.311 89.2811 250.527C89.4205 249.464 89.3334 248.558 89.0023 247.808 88.6711 247.041 88.096 246.449 87.2944 246.013 86.7367 245.7 85.691 245.421 84.1574 245.212L69.8669 243.26C65.4403 242.65 62.2859 241.935 60.4212 241.081 58.539 240.227 56.9356 238.572 55.5937 236.08 54.2518 233.605 53.851 230.416 54.3738 226.512 54.8269 223.253 55.5937 220.796 56.7091 219.14 58.2253 216.874 59.968 215.376 61.9548 214.626 63.9415 213.877 66.5033 213.72 69.6229 214.138L88.0437 216.648C90.2048 216.944 91.5641 217.014 92.1218 216.84 92.6795 216.665 93.1674 216.317 93.5508 215.759 93.9517 215.201 94.2479 214.138 94.4396 212.552L95.4679 212.692Z" fill="#00561F"/><path d="M91.0413 258.613 68.4727 278.516 84.7848 277.696C87.0678 277.574 88.584 277.174 89.3508 276.477 90.379 275.518 90.8321 274.002 90.6927 271.893L91.7209 271.841 92.3658 284.371 91.3375 284.423C91.0587 282.838 90.7276 281.774 90.379 281.234 90.0305 280.694 89.4728 280.293 88.7234 280.032 87.974 279.77 86.7018 279.666 84.9068 279.77L53.3282 281.374 53.2759 280.415 83.5474 253.158 59.4452 254.378C57.2668 254.5 55.8203 255.058 55.1058 256.104 54.3912 257.149 54.0775 258.3 54.1298 259.589L54.1821 260.478 53.1539 260.53 52.4742 247.076 53.5024 247.024C53.6244 249.115 54.1298 250.544 55.0012 251.329 55.89 252.095 57.3365 252.444 59.3406 252.339L86.1093 250.98 87.0852 250.126C88.0612 249.272 88.6711 248.523 88.9674 247.895 89.2462 247.268 89.3857 246.362 89.3682 245.212L90.3965 245.159 91.0761 258.613Z" fill="#00561F"/><path d="M108.782 330.606 107.824 330.99C107.214 329.892 106.517 329.125 105.75 328.707 104.67 328.132 102.143 327.539 98.1517 326.964L82.3449 324.385 73.8055 327.783C71.9756 328.498 70.8776 329.038 70.5291 329.421 70.1631 329.787 69.9191 330.327 69.7971 331.025 69.6926 331.722 69.7971 332.541 70.1806 333.482L70.9648 335.469 70.0063 335.852 62.1465 316.054 63.105 315.671 63.8369 317.518C64.2552 318.547 64.7606 319.313 65.3706 319.766 65.7888 320.115 66.3465 320.307 67.0436 320.342 67.5316 320.376 68.6644 320.028 70.442 319.331L77.5175 316.525 89.3334 302.217C91.6512 299.376 92.9583 297.529 93.2197 296.64 93.4811 295.751 93.394 294.741 92.9757 293.608L93.9342 293.224 100.661 310.146 99.6853 310.53 99.389 309.78C98.9882 308.752 98.5525 308.107 98.0994 307.811 97.6463 307.515 97.2455 307.445 96.9143 307.567 96.287 307.811 94.9973 309.136 93.028 311.523L83.8611 322.537 97.0363 324.664C100.26 325.204 102.299 325.308 103.153 324.977 103.624 324.786 103.92 324.402 104.06 323.844 104.269 323.078 104.094 321.893 103.554 320.289L104.53 319.906 108.8 330.676Z" fill="#00561F"/><path d="M92.8886 353.785 85.6039 342.527 81.6304 343.189C80.3059 343.416 79.3126 343.764 78.6329 344.182 77.7441 344.757 77.3084 345.542 77.3607 346.552 77.3955 347.128 77.8661 348.295 78.8246 350.038L77.9532 350.596 71.0868 340 71.9582 339.425C72.8644 340.47 73.9449 341.098 75.1997 341.324 76.4545 341.551 78.6503 341.429 81.7698 340.941L114.586 335.887 114.865 336.323 96.165 364.729C94.4048 367.431 93.4288 369.33 93.2371 370.463 93.0977 371.3 93.3069 372.241 93.8471 373.269L92.9757 373.827 82.9898 358.403 83.8611 357.828 84.262 358.455C85.0636 359.693 85.7956 360.46 86.4753 360.738 86.9458 360.913 87.4164 360.86 87.8869 360.547 88.1657 360.355 88.4272 360.129 88.6711 359.85 88.7931 359.728 89.2288 359.118 89.9782 358.002L92.8537 353.733ZM94.1085 351.85 102.021 340 87.8695 342.213 94.1085 351.85Z" fill="#00561F"/><path d="M142.662 370.219 135.22 377.295 134.523 376.563C135.83 374.489 136.614 372.851 136.858 371.596 137.102 370.358 137.015 369.069 136.597 367.727 136.353 366.978 135.621 365.967 134.401 364.677L132.449 362.621 111.222 382.784C109.811 384.126 109.009 385.032 108.8 385.52 108.591 386.008 108.573 386.601 108.748 387.315 108.904 388.013 109.375 388.762 110.107 389.546L110.978 390.452 110.229 391.167 96.5309 376.754 97.2803 376.04 98.1517 376.946C98.9011 377.748 99.6505 378.253 100.4 378.462 100.923 378.637 101.515 378.602 102.16 378.375 102.631 378.218 103.537 377.486 104.931 376.179L126.158 356.016 124.276 354.029C122.515 352.182 120.842 351.206 119.256 351.101 117.043 350.962 114.778 351.711 112.46 353.332L111.728 352.565 119.169 345.489 142.662 370.202Z" fill="#00561F"/><path d="M139.856 396.5 128.998 388.082 131.996 384.231 142.853 392.666 139.873 396.517Z" fill="#00561F"/><path d="M174.188 389.633 167.879 400.613 166.903 400.02C168.088 397.023 168.28 394.147 167.478 391.411 166.677 388.657 165.213 386.636 163.104 385.364 161.466 384.37 159.932 384.022 158.451 384.318 156.97 384.614 155.889 385.329 155.192 386.461 154.756 387.176 154.53 387.925 154.53 388.692 154.53 389.72 154.826 390.923 155.401 392.265 155.819 393.241 156.987 395.228 158.887 398.225 161.553 402.408 163.034 405.719 163.348 408.176 163.644 410.633 163.139 412.934 161.849 415.06 160.194 417.761 157.719 419.452 154.425 420.131 151.131 420.794 147.838 420.131 144.596 418.162 143.568 417.535 142.679 416.855 141.895 416.088 141.11 415.321 140.204 414.241 139.193 412.829 138.618 412.045 138.096 411.505 137.59 411.209 137.172 410.965 136.632 410.843 135.987 410.895 135.325 410.93 134.662 411.191 133.965 411.662L133.076 411.139 140.518 398.887 141.407 399.428C140.013 403.296 139.769 406.747 140.675 409.779 141.581 412.812 143.184 415.025 145.502 416.437 147.28 417.517 149.005 417.901 150.661 417.57 152.316 417.238 153.536 416.437 154.321 415.147 154.791 414.38 155.035 413.526 155.07 412.55 155.105 411.574 154.896 410.529 154.46 409.379 154.024 408.228 153.066 406.503 151.584 404.168 149.528 400.926 148.151 398.399 147.489 396.587 146.809 394.774 146.513 393.032 146.583 391.359 146.652 389.686 147.14 388.082 148.081 386.566 149.65 383.987 151.933 382.366 154.948 381.704 157.945 381.042 160.891 381.582 163.784 383.342 164.829 383.987 165.788 384.736 166.607 385.59 167.252 386.235 167.949 387.141 168.698 388.326 169.465 389.494 170.058 390.226 170.493 390.487 170.912 390.731 171.312 390.801 171.713 390.696 172.097 390.592 172.707 390.104 173.508 389.267L174.223 389.703Z" fill="#00561F"/><path d="M186.073 398.277 180.357 412.638 181.054 412.916C183.285 413.805 185.185 413.753 186.753 412.76 188.322 411.749 189.786 409.936 191.145 407.305L192.138 407.706 184.784 426.161 183.808 425.76C184.4 423.669 184.627 421.839 184.453 420.288 184.296 418.737 183.86 417.57 183.163 416.785 182.449 415.984 181.263 415.269 179.573 414.589L175.617 424.523C174.85 426.475 174.449 427.695 174.449 428.183 174.449 428.688 174.606 429.159 174.955 429.612 175.286 430.065 175.965 430.501 176.976 430.902L179.085 431.738C182.379 433.045 185.324 433.341 187.921 432.609 190.517 431.878 192.853 430.117 194.979 427.346L195.937 427.73 189.89 438.308 159.409 426.161 159.793 425.203 160.96 425.673C161.971 426.074 162.877 426.231 163.644 426.109 164.185 426.039 164.707 425.76 165.178 425.273 165.526 424.941 166.067 423.878 166.764 422.118L176 398.922C176.645 397.336 176.976 396.343 177.046 395.925 177.116 395.245 176.976 394.652 176.645 394.13 176.175 393.38 175.373 392.77 174.24 392.317L173.073 391.847 173.456 390.888 202.961 402.652 198.813 413.073 197.82 412.69C198.342 409.936 198.36 407.828 197.889 406.364 197.419 404.882 196.46 403.575 194.996 402.373 194.142 401.676 192.4 400.787 189.716 399.724L186.073 398.277Z" fill="#00561F"/><path d="M215.805 405.614 230.008 432.122 232.936 416.071C233.337 413.823 233.302 412.254 232.797 411.348 232.099 410.128 230.723 409.344 228.649 408.995L228.841 407.984 241.179 410.233 240.988 411.243C239.384 411.156 238.269 411.243 237.659 411.453 237.066 411.662 236.543 412.115 236.108 412.794 235.672 413.457 235.289 414.677 234.975 416.437L229.311 447.527 228.37 447.353 208.781 411.662 204.459 435.398C204.059 437.542 204.303 439.093 205.139 440.016 205.993 440.94 207.039 441.532 208.311 441.759L209.2 441.916 209.008 442.944 195.763 440.522 195.955 439.511C198.011 439.877 199.527 439.702 200.486 439.023 201.445 438.343 202.107 437.019 202.455 435.032L207.248 408.682 206.62 407.549C206.011 406.416 205.435 405.632 204.878 405.213 204.32 404.795 203.501 404.464 202.351 404.22L202.542 403.209 215.787 405.614Z" fill="#00561F"/><path d="M252.141 410.25 271.538 407.392 271.695 408.42 270.719 408.56C269.255 408.769 268.279 409.082 267.791 409.466 267.286 409.849 266.954 410.337 266.815 410.895 266.658 411.47 266.745 412.812 267.059 414.955L269.76 433.341C270.248 436.705 270.823 438.883 271.503 439.912 272.165 440.922 273.141 441.707 274.413 442.264 275.668 442.822 277.202 442.961 278.979 442.7 281.001 442.404 282.674 441.689 283.964 440.556 285.271 439.424 286.16 438.012 286.63 436.304 287.101 434.596 287.048 431.738 286.456 427.747L284.208 412.428C283.964 410.755 283.615 409.57 283.145 408.908 282.692 408.246 282.169 407.81 281.594 407.601 280.705 407.305 279.485 407.253 277.986 407.479L277.829 406.468 290.813 404.551 290.97 405.579 290.185 405.684C289.14 405.841 288.286 406.189 287.641 406.712 286.996 407.235 286.578 407.95 286.404 408.856 286.247 409.483 286.282 410.564 286.508 412.097L288.599 426.37C289.262 430.78 289.436 434.021 289.14 436.06 288.843 438.099 287.693 440.121 285.689 442.09 283.667 444.077 280.722 445.349 276.818 445.907 273.577 446.377 270.998 446.325 269.098 445.715 266.501 444.896 264.567 443.624 263.312 441.933 262.04 440.225 261.186 437.82 260.715 434.701L258.014 416.315C257.7 414.154 257.387 412.829 257.073 412.341 256.759 411.853 256.271 411.487 255.644 411.261 254.999 411.034 253.884 411.052 252.315 411.296L252.159 410.267Z" fill="#00561F"/><path d="M299.997 400.787 325.65 416.507 320.056 401.17C319.272 399.027 318.435 397.685 317.547 397.162 316.327 396.447 314.741 396.482 312.771 397.232L312.423 396.256 324.221 391.951 324.57 392.927C323.141 393.676 322.217 394.286 321.799 394.792 321.398 395.28 321.171 395.942 321.137 396.726 321.102 397.528 321.398 398.765 322.008 400.456L332.83 430.17 331.942 430.501 296.982 409.588 305.243 432.261C305.992 434.317 306.968 435.52 308.171 435.903 309.373 436.287 310.576 436.252 311.795 435.816L312.649 435.502 312.998 436.478 300.346 441.097 299.997 440.121C301.949 439.389 303.169 438.483 303.657 437.419 304.145 436.356 304.04 434.858 303.343 432.975L294.159 407.793 293.061 407.13C291.963 406.451 291.057 406.085 290.377 405.98 289.68 405.893 288.791 406.033 287.693 406.399L287.345 405.423 300.014 400.804Z" fill="#00561F"/><path d="M359.198 413.683 359.704 414.589 342.45 424.419 341.928 423.512 343.026 422.885C343.984 422.345 344.664 421.735 345.03 421.055 345.326 420.585 345.431 420.009 345.343 419.33 345.309 418.842 344.821 417.761 343.862 416.106L331.506 394.408C330.547 392.718 329.85 391.725 329.432 391.393 329.014 391.08 328.439 390.905 327.707 390.905 326.992 390.905 326.156 391.167 325.232 391.69L324.134 392.317 323.629 391.411 340.865 381.582 341.387 382.488 340.289 383.115C339.331 383.656 338.651 384.266 338.268 384.945 337.972 385.416 337.867 385.991 337.937 386.671 337.972 387.159 338.477 388.239 339.418 389.895L351.774 411.592C352.75 413.282 353.447 414.276 353.865 414.589 354.284 414.903 354.876 415.06 355.591 415.077 356.305 415.095 357.142 414.833 358.065 414.293L359.163 413.666Z" fill="#00561F"/><path d="M370.578 357.933 371.241 358.734C370.317 359.797 369.846 361.139 369.812 362.795 369.812 364.015 370.3 366.455 371.328 370.097L379.798 400.752 379.083 401.345 349.787 386.444C346.267 384.649 344.089 383.673 343.27 383.516 342.45 383.359 341.422 383.69 340.185 384.51L339.523 383.708 353.517 372.084 354.179 372.885 353.691 373.269C352.436 374.315 351.704 375.186 351.513 375.883 351.356 376.371 351.46 376.824 351.792 377.242 352.001 377.486 352.314 377.748 352.733 378.009 353.134 378.271 354.301 378.898 356.253 379.874L374.552 389.25 369.568 371.509C368.958 369.365 368.505 367.971 368.226 367.309 367.947 366.646 367.651 366.124 367.337 365.758 366.971 365.322 366.553 365.043 366.047 364.904 365.542 364.764 365.002 364.799 364.409 364.991 363.573 365.27 362.666 365.81 361.638 366.664L360.976 365.862 370.561 357.898Z" fill="#00561F"/><path d="M378.055 350.421 390.463 359.623 390.916 359.013C392.345 357.079 392.781 355.231 392.206 353.454 391.631 351.676 390.254 349.794 388.058 347.807L388.686 346.953 404.649 358.787 404.022 359.641C402.157 358.525 400.449 357.846 398.916 357.602 397.382 357.358 396.145 357.48 395.186 357.95 394.228 358.421 393.217 359.397 392.136 360.843L400.728 367.204C402.401 368.441 403.482 369.139 403.97 369.278 404.457 369.417 404.945 369.365 405.486 369.156 406.009 368.947 406.601 368.407 407.246 367.535L408.605 365.723C410.714 362.882 411.742 360.094 411.707 357.41 411.655 354.726 410.575 351.99 408.431 349.254L409.041 348.417 417.72 356.974 398.184 383.325 397.347 382.697 398.096 381.686C398.759 380.798 399.125 379.961 399.212 379.194 399.282 378.654 399.16 378.079 398.811 377.504 398.567 377.068 397.678 376.284 396.162 375.151L376.103 360.285C374.726 359.257 373.855 358.665 373.489 358.508 372.844 358.264 372.234 358.246 371.659 358.438 370.822 358.699 370.038 359.327 369.289 360.303L368.539 361.314 367.703 360.704 386.629 335.19 395.657 341.865 395.029 342.718C392.502 341.516 390.463 340.958 388.93 341.028 387.379 341.098 385.862 341.69 384.346 342.806 383.457 343.433 382.15 344.914 380.442 347.215L378.107 350.369Z" fill="#00561F"/><path d="M412.108 329.317 421.99 333.238C423.907 334.005 425.144 334.353 425.736 334.318 426.329 334.284 426.887 334.022 427.41 333.552 427.932 333.081 428.525 332.035 429.17 330.415L430.128 330.798 422.948 348.853 421.99 348.47C422.652 346.849 422.931 345.664 422.844 344.967 422.774 344.27 422.547 343.694 422.146 343.276 421.746 342.858 420.595 342.248 418.696 341.499L395.796 332.401C393.896 331.652 392.642 331.286 392.049 331.321 391.457 331.356 390.899 331.6 390.376 332.088 389.836 332.558 389.261 333.604 388.616 335.207L387.657 334.824 394.158 318.424C395.866 314.155 397.399 311.157 398.776 309.414 400.153 307.672 401.878 306.487 403.97 305.877 406.043 305.267 408.17 305.371 410.296 306.225 412.892 307.271 414.67 309.048 415.629 311.61 416.221 313.231 416.378 315.218 416.064 317.588L431.366 313.859C433.352 313.371 434.624 312.952 435.2 312.639 436.019 312.151 436.646 311.436 437.064 310.53L438.023 310.913 433.596 322.015 413.014 326.999 412.091 329.317ZM394.803 322.433 410.261 328.567 410.853 327.086C411.812 324.681 412.3 322.781 412.335 321.405 412.37 320.028 411.951 318.773 411.062 317.623 410.174 316.473 408.814 315.532 406.95 314.8 404.266 313.737 402.018 313.562 400.24 314.329 398.462 315.078 396.999 316.839 395.901 319.644L394.803 322.433Z" fill="#00561F"/><path d="M403.726 277.191 416.256 278.969 416.064 280.101C412.84 280.101 410.104 281.008 407.856 282.768 405.59 284.545 404.266 286.637 403.865 289.077 403.551 290.959 403.813 292.527 404.632 293.799 405.451 295.054 406.514 295.804 407.821 296.013 408.658 296.152 409.424 296.082 410.121 295.804 411.08 295.42 412.073 294.706 413.119 293.66 413.868 292.893 415.28 291.081 417.354 288.205 420.247 284.179 422.756 281.565 424.935 280.345 427.096 279.16 429.431 278.76 431.871 279.178 435.008 279.701 437.5 281.374 439.347 284.179 441.195 286.985 441.822 290.279 441.195 294.026 441.003 295.211 440.689 296.309 440.288 297.302 439.87 298.313 439.19 299.551 438.284 301.032 437.761 301.851 437.465 302.548 437.378 303.123 437.291 303.611 437.395 304.151 437.674 304.744 437.953 305.336 438.441 305.859 439.138 306.312L438.964 307.341 424.83 304.988 425.005 303.96C429.117 303.82 432.411 302.757 434.886 300.788 437.361 298.819 438.825 296.501 439.26 293.834 439.609 291.778 439.312 290.035 438.389 288.623 437.465 287.212 436.263 286.375 434.764 286.131 433.875 285.992 432.986 286.079 432.08 286.41 431.174 286.741 430.268 287.316 429.379 288.153 428.473 288.989 427.218 290.506 425.614 292.754 423.366 295.873 421.536 298.087 420.107 299.394 418.696 300.683 417.18 301.607 415.594 302.182 414.008 302.74 412.335 302.879 410.592 302.583 407.612 302.078 405.242 300.561 403.516 298.017 401.791 295.472 401.199 292.545 401.739 289.216 401.948 287.996 402.296 286.846 402.767 285.748 403.133 284.929 403.726 283.935 404.527 282.785 405.329 281.635 405.782 280.816 405.852 280.328 405.921 279.857 405.852 279.439 405.608 279.125 405.346 278.794 404.701 278.428 403.604 277.993L403.743 277.156Z" fill="#00561F"/><path d="M443.966 255.076 445.011 255.076C445.011 255.076 444.732 274.943 444.732 274.943L443.704 274.943C443.704 274.943 443.704 273.671 443.704 273.671 443.722 272.573 443.547 271.684 443.164 271.004 442.92 270.516 442.467 270.133 441.839 269.871 441.386 269.662 440.219 269.54 438.319 269.506L413.345 269.14C411.394 269.105 410.191 269.209 409.703 269.401 409.215 269.593 408.78 270.011 408.414 270.621 408.03 271.248 407.838 272.085 407.821 273.148L407.821 274.403C407.821 274.403 406.758 274.403 406.758 274.403L407.037 254.553 408.065 254.553C408.065 254.553 408.048 255.825 408.048 255.825 408.048 256.923 408.222 257.812 408.605 258.491 408.867 258.979 409.302 259.363 409.93 259.659 410.365 259.868 411.55 259.99 413.45 260.008L438.424 260.374C440.376 260.391 441.578 260.304 442.066 260.112 442.554 259.903 442.99 259.485 443.356 258.875 443.739 258.247 443.913 257.411 443.931 256.348L443.931 255.093Z" fill="#00561F"/><path d="M405.015 219.645 415.21 218.321 415.35 219.314C413.067 220.221 411.481 221.092 410.54 221.946 409.616 222.8 408.919 223.898 408.466 225.24 408.222 225.989 408.222 227.244 408.466 229.004L408.832 231.81 437.866 228.028C439.783 227.767 440.986 227.505 441.439 227.244 441.892 226.965 442.258 226.494 442.537 225.832 442.815 225.17 442.885 224.299 442.746 223.218L442.571 221.981 443.6 221.841 446.179 241.552 445.151 241.691 444.976 240.436C444.837 239.338 444.523 238.485 444.053 237.875 443.722 237.421 443.234 237.108 442.571 236.916 442.101 236.777 440.933 236.829 439.034 237.073L409.999 240.855 410.348 243.573C410.679 246.118 411.463 247.878 412.683 248.889 414.391 250.3 416.657 251.05 419.497 251.102L419.637 252.165 409.459 253.49 405.05 219.68Z" fill="#00561F"/><path d="M393.618 179.911 394.611 179.614C395.134 180.765 395.744 181.584 396.476 182.072 397.486 182.751 399.961 183.553 403.865 184.512L419.375 188.555 428.176 185.975C430.059 185.435 431.191 184.982 431.592 184.668 431.993 184.337 432.289 183.832 432.463 183.135 432.638 182.455 432.585 181.619 432.307 180.66L431.714 178.621 432.707 178.325 438.685 198.767 437.692 199.064 437.134 197.164C436.82 196.083 436.385 195.282 435.827 194.776 435.444 194.376 434.903 194.149 434.224 194.044 433.736 193.975 432.568 194.201 430.756 194.742L423.453 196.885 410.348 210.025C407.769 212.622 406.305 214.347 405.956 215.219 405.608 216.073 405.608 217.084 405.921 218.251L404.928 218.547 399.822 201.085 400.815 200.789 401.042 201.573C401.355 202.636 401.721 203.316 402.14 203.664 402.575 203.996 402.959 204.118 403.29 204.013 403.935 203.821 405.346 202.636 407.525 200.44L417.65 190.332 404.754 186.986C401.582 186.132 399.56 185.853 398.689 186.097 398.218 186.237 397.87 186.585 397.678 187.143 397.399 187.892 397.469 189.078 397.852 190.733L396.859 191.029 393.6 179.911Z" fill="#00561F"/><path d="M247 242.894C246.059 242.894 245.31 243.661 245.31 244.584L245.31 258.125C245.31 259.066 246.059 259.816 247 259.816 247.941 259.816 248.69 259.066 248.69 258.125L248.69 244.584C248.69 243.643 247.924 242.894 247 242.894ZM301.931 182.647C294.821 159.05 272.915 141.849 247 141.849 221.085 141.849 199.179 159.05 192.069 182.647 153.153 184.878 122.289 217.118 122.289 256.592 122.289 296.065 153.153 328.306 192.069 330.519 199.179 354.133 221.068 371.334 247 371.334 272.932 371.334 294.821 354.133 301.931 330.519 340.847 328.288 371.711 296.048 371.711 256.592 371.711 217.136 340.847 184.878 301.931 182.647ZM361.342 260.6C361.29 261.384 361.237 262.169 361.168 262.935 361.133 263.301 361.08 263.667 361.046 264.033 360.958 264.713 360.889 265.375 360.784 266.055 360.732 266.456 360.662 266.857 360.592 267.24 360.488 267.867 360.383 268.495 360.261 269.105 360.174 269.523 360.087 269.924 360 270.342 359.878 270.935 359.739 271.527 359.599 272.12 359.495 272.538 359.39 272.956 359.268 273.357 359.111 273.932 358.954 274.49 358.797 275.065 358.675 275.483 358.536 275.901 358.397 276.302 358.222 276.86 358.031 277.4 357.839 277.958 357.682 278.376 357.543 278.777 357.386 279.195 357.194 279.735 356.985 280.258 356.758 280.799 356.602 281.199 356.427 281.618 356.253 282.018 356.026 282.541 355.782 283.064 355.556 283.569 355.364 283.97 355.173 284.371 354.981 284.755 354.737 285.26 354.475 285.765 354.214 286.271 354.005 286.654 353.813 287.055 353.587 287.438 353.325 287.926 353.029 288.432 352.733 288.92 352.506 289.303 352.297 289.669 352.07 290.035 351.774 290.523 351.46 291.011 351.147 291.482 350.92 291.83 350.694 292.196 350.45 292.545 350.119 293.033 349.77 293.503 349.421 293.974 349.177 294.305 348.951 294.636 348.707 294.967 348.323 295.455 347.958 295.943 347.574 296.414 347.33 296.71 347.104 297.006 346.86 297.302 346.406 297.86 345.919 298.4 345.431 298.958 345.256 299.15 345.099 299.359 344.908 299.568 344.245 300.3 343.566 300.997 342.869 301.694 342.607 301.956 342.328 302.217 342.05 302.478 341.614 302.914 341.178 303.332 340.725 303.751 340.394 304.047 340.063 304.343 339.714 304.639 339.313 305.005 338.895 305.354 338.477 305.702 338.111 305.999 337.745 306.295 337.379 306.591 336.978 306.922 336.577 307.236 336.159 307.55 335.776 307.846 335.375 308.125 334.974 308.404 334.573 308.7 334.155 308.996 333.737 309.292 333.336 309.571 332.918 309.85 332.499 310.112 332.081 310.39 331.663 310.652 331.245 310.913 330.809 311.175 330.373 311.436 329.955 311.697 329.537 311.941 329.101 312.185 328.683 312.429 328.247 312.673 327.794 312.917 327.341 313.161 326.905 313.388 326.469 313.615 326.034 313.824 325.581 314.05 325.11 314.277 324.64 314.503 324.204 314.712 323.768 314.904 323.315 315.096 322.844 315.305 322.374 315.514 321.886 315.706 321.433 315.88 320.98 316.054 320.544 316.229 320.056 316.42 319.568 316.612 319.063 316.786 318.61 316.943 318.156 317.1 317.703 317.239 317.198 317.414 316.693 317.588 316.17 317.727 315.717 317.867 315.264 317.989 314.793 318.111 314.27 318.268 313.747 318.407 313.224 318.547 312.771 318.651 312.318 318.756 311.848 318.86 311.307 318.982 310.767 319.104 310.227 319.209 309.774 319.296 309.321 319.366 308.868 319.453 308.31 319.54 307.735 319.662 307.177 319.732 306.741 319.801 306.306 319.836 305.888 319.888 303.204 320.237 300.468 320.429 297.697 320.429 296.372 320.429 295.048 320.376 293.758 320.289 293.287 323.775 292.451 327.156 291.248 330.362L291.248 330.362C291.039 330.937 290.813 331.513 290.569 332.088 290.447 332.401 290.307 332.698 290.168 332.994 290.029 333.325 289.889 333.639 289.732 333.97 289.575 334.284 289.436 334.58 289.279 334.893 289.122 335.207 288.965 335.503 288.809 335.817 288.652 336.113 288.495 336.41 288.338 336.706 288.129 337.072 287.92 337.42 287.711 337.786 287.467 338.205 287.205 338.623 286.944 339.024 286.735 339.355 286.526 339.686 286.299 340.017 286.125 340.296 285.933 340.557 285.741 340.836 285.532 341.115 285.34 341.411 285.114 341.708 284.922 341.969 284.731 342.23 284.521 342.492 284.295 342.788 284.051 343.084 283.824 343.381 283.633 343.607 283.458 343.851 283.267 344.078 282.866 344.566 282.465 345.036 282.047 345.489 281.855 345.699 281.663 345.908 281.454 346.117 281.193 346.413 280.914 346.692 280.635 346.971 280.426 347.18 280.199 347.406 279.99 347.616 279.711 347.894 279.415 348.156 279.136 348.435 278.927 348.626 278.718 348.835 278.492 349.027 278.091 349.393 277.69 349.724 277.272 350.073 277.062 350.247 276.853 350.421 276.644 350.596 276.243 350.909 275.842 351.241 275.442 351.537 275.233 351.694 275.006 351.85 274.779 352.025 274.431 352.269 274.082 352.513 273.751 352.757 273.525 352.914 273.298 353.07 273.072 353.21 272.671 353.471 272.287 353.715 271.886 353.977 271.712 354.081 271.538 354.203 271.346 354.308 270.771 354.656 270.196 354.987 269.621 355.319 269.447 355.406 269.255 355.51 269.063 355.597 268.628 355.824 268.209 356.05 267.756 356.26 267.53 356.364 267.303 356.469 267.076 356.591 266.641 356.8 266.223 356.992 265.787 357.166 265.578 357.253 265.351 357.358 265.142 357.445 264.515 357.706 263.887 357.967 263.242 358.194 263.19 358.194 263.155 358.229 263.103 358.246 262.476 358.473 261.866 358.682 261.238 358.874 261.029 358.943 260.803 358.996 260.593 359.065 260.123 359.205 259.652 359.344 259.164 359.466 258.938 359.536 258.711 359.588 258.485 359.641 257.944 359.763 257.422 359.885 256.881 360.007 256.725 360.041 256.568 360.094 256.393 360.111 255.696 360.251 254.999 360.373 254.302 360.477 254.128 360.512 253.954 360.529 253.797 360.547 253.256 360.634 252.699 360.704 252.159 360.756 251.915 360.791 251.688 360.808 251.444 360.826 250.921 360.878 250.398 360.913 249.876 360.948 249.666 360.948 249.44 360.982 249.213 360.982 248.481 361.017 247.749 361.035 247.017 361.035L247.017 361.035C246.285 361.035 245.553 361.017 244.822 360.982 244.595 360.982 244.368 360.948 244.142 360.948 243.619 360.913 243.114 360.878 242.608 360.826 242.364 360.791 242.12 360.773 241.876 360.756 241.336 360.704 240.813 360.634 240.273 360.547 240.081 360.512 239.907 360.495 239.733 360.477 239.036 360.373 238.339 360.251 237.641 360.111 237.467 360.076 237.293 360.024 237.119 359.989 236.596 359.885 236.09 359.763 235.568 359.641 235.324 359.571 235.08 359.519 234.853 359.449 234.382 359.327 233.929 359.205 233.476 359.065 233.25 358.996 233.023 358.926 232.779 358.856 232.187 358.665 231.611 358.473 231.036 358.264 230.914 358.211 230.775 358.177 230.653 358.124 230.06 357.915 229.485 357.671 228.928 357.445 228.684 357.34 228.457 357.236 228.213 357.148 227.812 356.974 227.411 356.8 227.011 356.608 226.767 356.486 226.505 356.364 226.261 356.242 225.86 356.05 225.46 355.841 225.076 355.632 224.85 355.51 224.641 355.406 224.414 355.284 223.856 354.97 223.281 354.656 222.741 354.325 222.514 354.186 222.305 354.046 222.079 353.907 221.73 353.68 221.364 353.454 221.016 353.227 220.754 353.053 220.51 352.896 220.266 352.722 219.953 352.495 219.639 352.286 219.325 352.06 219.081 351.868 218.82 351.694 218.576 351.502 218.227 351.241 217.896 350.979 217.565 350.718 217.216 350.439 216.868 350.143 216.519 349.864 216.206 349.585 215.874 349.306 215.561 349.027 215.317 348.801 215.055 348.574 214.829 348.348 214.585 348.121 214.341 347.877 214.097 347.65 213.853 347.406 213.591 347.162 213.347 346.918 213.121 346.674 212.894 346.448 212.668 346.204 212.424 345.96 212.197 345.699 211.953 345.437 211.587 345.036 211.239 344.635 210.89 344.217 210.611 343.886 210.35 343.555 210.089 343.224 209.897 342.98 209.705 342.753 209.531 342.509 209.304 342.213 209.078 341.917 208.851 341.603 208.677 341.359 208.52 341.133 208.346 340.889 208.137 340.575 207.91 340.261 207.701 339.947 207.544 339.721 207.405 339.477 207.248 339.233 206.864 338.64 206.498 338.013 206.15 337.403 206.011 337.176 205.889 336.95 205.749 336.723 205.557 336.375 205.366 336.026 205.191 335.678 205.069 335.434 204.947 335.172 204.808 334.928 204.634 334.58 204.459 334.231 204.303 333.865 204.181 333.621 204.076 333.36 203.954 333.116 203.78 332.75 203.623 332.384 203.466 332.018 203.414 331.913 203.379 331.791 203.327 331.687 201.863 328.079 200.835 324.263 200.294 320.272 198.987 320.359 197.68 320.411 196.356 320.411 193.532 320.411 190.761 320.202 188.043 319.854 187.642 319.801 187.241 319.766 186.858 319.697 186.265 319.61 185.673 319.505 185.098 319.4 184.662 319.331 184.244 319.261 183.808 319.174 183.233 319.052 182.675 318.93 182.117 318.79 181.682 318.703 181.246 318.599 180.828 318.494 180.27 318.355 179.73 318.198 179.172 318.041 178.736 317.919 178.301 317.797 177.883 317.675 177.342 317.518 176.819 317.327 176.279 317.152 175.844 317.013 175.425 316.873 175.007 316.717 174.484 316.525 173.961 316.333 173.456 316.124 173.038 315.967 172.602 315.793 172.184 315.619 171.678 315.41 171.173 315.2 170.668 314.974 170.249 314.8 169.831 314.608 169.43 314.416 168.942 314.19 168.437 313.946 167.966 313.702 167.565 313.493 167.147 313.283 166.746 313.074 166.276 312.83 165.788 312.569 165.317 312.307 164.916 312.081 164.533 311.854 164.132 311.628 163.662 311.349 163.209 311.07 162.738 310.791 162.355 310.565 161.971 310.303 161.588 310.059 161.135 309.763 160.682 309.467 160.246 309.171 159.862 308.909 159.514 308.648 159.148 308.386 158.712 308.073 158.259 307.759 157.841 307.428 157.475 307.149 157.126 306.87 156.778 306.591 156.36 306.26 155.924 305.929 155.523 305.58 155.174 305.302 154.826 304.988 154.495 304.692 154.094 304.343 153.676 303.995 153.292 303.629 152.961 303.332 152.647 303.019 152.316 302.705 151.916 302.321 151.532 301.956 151.149 301.572 150.887 301.311 150.626 301.032 150.364 300.753 149.615 299.969 148.866 299.15 148.151 298.331 147.838 297.982 147.524 297.616 147.21 297.25 146.896 296.867 146.583 296.466 146.269 296.065 145.973 295.682 145.659 295.298 145.363 294.915 145.067 294.514 144.788 294.113 144.491 293.712 144.195 293.311 143.916 292.911 143.637 292.51 143.359 292.092 143.08 291.691 142.818 291.272 142.54 290.854 142.261 290.436 142.017 290.018 141.755 289.599 141.511 289.164 141.267 288.745 141.023 288.31 140.762 287.874 140.518 287.438 140.274 287.003 140.047 286.567 139.821 286.131 139.594 285.678 139.35 285.243 139.124 284.772 138.897 284.336 138.688 283.883 138.479 283.43 138.27 282.96 138.061 282.506 137.852 282.036 137.66 281.583 137.468 281.13 137.276 280.677 137.085 280.206 136.893 279.718 136.719 279.247 136.544 278.794 136.37 278.324 136.213 277.853 136.039 277.365 135.865 276.877 135.708 276.372 135.551 275.901 135.412 275.431 135.272 274.96 135.115 274.455 134.976 273.95 134.837 273.444 134.697 272.974 134.575 272.503 134.453 272.015 134.331 271.492 134.209 270.969 134.087 270.447 133.983 269.976 133.861 269.488 133.774 269.018 133.669 268.477 133.564 267.937 133.477 267.397 133.408 266.926 133.303 266.456 133.233 265.968 133.146 265.41 133.094 264.835 133.024 264.277 132.972 263.807 132.902 263.336 132.85 262.883 132.798 262.273 132.745 261.663 132.71 261.036 132.676 260.6 132.641 260.164 132.623 259.729 132.588 258.91 132.571 258.073 132.571 257.254 132.571 257.027 132.554 256.801 132.554 256.574 132.554 256.348 132.554 256.121 132.571 255.895 132.571 255.076 132.588 254.239 132.623 253.42 132.641 252.984 132.693 252.549 132.71 252.113 132.763 251.503 132.798 250.876 132.85 250.266 132.902 249.795 132.954 249.324 133.024 248.871 133.094 248.296 133.146 247.739 133.233 247.163 133.303 246.675 133.39 246.205 133.477 245.734 133.564 245.194 133.669 244.654 133.774 244.114 133.861 243.626 133.983 243.155 134.087 242.667 134.209 242.144 134.314 241.622 134.453 241.099 134.575 240.611 134.697 240.14 134.837 239.67 134.976 239.164 135.115 238.641 135.272 238.153 135.412 237.683 135.569 237.212 135.708 236.742 135.865 236.254 136.039 235.748 136.213 235.26 136.37 234.79 136.544 234.337 136.719 233.866 136.893 233.396 137.085 232.908 137.276 232.437 137.468 231.984 137.66 231.531 137.852 231.078 138.061 230.607 138.27 230.154 138.479 229.684 138.688 229.231 138.897 228.795 139.124 228.342 139.35 227.889 139.577 227.453 139.821 227 140.047 226.564 140.274 226.111 140.518 225.693 140.762 225.257 141.023 224.821 141.267 224.386 141.511 223.967 141.773 223.532 142.017 223.113 142.278 222.695 142.557 222.277 142.818 221.859 143.08 221.44 143.359 221.022 143.637 220.621 143.916 220.203 144.213 219.82 144.491 219.419 144.788 219.001 145.067 218.6 145.363 218.199 145.659 217.816 145.973 217.432 146.269 217.049 146.583 216.648 146.879 216.247 147.21 215.864 147.524 215.498 147.838 215.149 148.151 214.783 148.866 213.964 149.615 213.145 150.364 212.361 150.626 212.082 150.87 211.803 151.149 211.542 151.532 211.158 151.916 210.792 152.316 210.426 152.647 210.113 152.961 209.799 153.292 209.503 153.693 209.137 154.094 208.788 154.495 208.44 154.843 208.143 155.174 207.847 155.523 207.551 155.924 207.202 156.36 206.888 156.778 206.54 157.144 206.261 157.475 205.982 157.841 205.703 158.259 205.372 158.712 205.076 159.148 204.745 159.514 204.483 159.88 204.222 160.246 203.961 160.682 203.664 161.135 203.368 161.588 203.072 161.971 202.828 162.355 202.584 162.738 202.34 163.191 202.061 163.662 201.782 164.132 201.503 164.533 201.277 164.916 201.05 165.317 200.824 165.788 200.562 166.258 200.301 166.746 200.057 167.147 199.848 167.548 199.639 167.966 199.43 168.454 199.186 168.942 198.959 169.43 198.732 169.831 198.541 170.249 198.349 170.668 198.175 171.173 197.948 171.678 197.739 172.184 197.53 172.602 197.356 173.02 197.199 173.456 197.025 173.979 196.833 174.484 196.624 175.007 196.449 175.425 196.293 175.861 196.153 176.279 196.014 176.819 195.839 177.342 195.665 177.883 195.508 178.318 195.386 178.754 195.264 179.172 195.142 179.712 194.985 180.27 194.829 180.828 194.707 181.263 194.602 181.699 194.515 182.117 194.41 182.693 194.288 183.25 194.149 183.808 194.027 184.226 193.94 184.662 193.87 185.098 193.8 185.69 193.696 186.265 193.591 186.858 193.487 187.241 193.417 187.642 193.382 188.043 193.33 190.761 192.981 193.532 192.772 196.356 192.772 197.68 192.772 198.987 192.824 200.294 192.894 200.817 189.025 201.793 185.313 203.187 181.81 203.274 181.584 203.362 181.357 203.449 181.131 203.588 180.765 203.762 180.416 203.919 180.068 204.041 179.789 204.163 179.527 204.268 179.266 204.425 178.917 204.599 178.569 204.773 178.22 204.895 177.959 205.035 177.697 205.174 177.436 205.348 177.087 205.523 176.756 205.714 176.425 205.854 176.164 206.011 175.902 206.167 175.641 206.498 175.066 206.83 174.508 207.196 173.968 207.352 173.707 207.527 173.445 207.701 173.184 207.91 172.87 208.119 172.574 208.328 172.277 208.503 172.016 208.694 171.772 208.869 171.528 209.095 171.232 209.304 170.936 209.531 170.657 209.723 170.395 209.932 170.134 210.141 169.89 210.35 169.628 210.559 169.35 210.786 169.088 211.169 168.618 211.57 168.165 211.971 167.711 212.18 167.467 212.424 167.223 212.65 166.997 212.894 166.736 213.121 166.492 213.382 166.23 213.609 165.986 213.853 165.76 214.097 165.516 214.341 165.272 214.602 165.028 214.864 164.784 215.108 164.557 215.334 164.348 215.561 164.139 215.909 163.825 216.258 163.529 216.606 163.233 216.903 162.989 217.199 162.745 217.495 162.501 217.844 162.222 218.21 161.926 218.558 161.664 218.802 161.49 219.029 161.316 219.29 161.141 219.604 160.915 219.918 160.688 220.249 160.462 220.493 160.287 220.737 160.13 220.981 159.956 221.347 159.712 221.713 159.486 222.079 159.259 222.288 159.12 222.497 158.998 222.706 158.858 223.264 158.527 223.839 158.196 224.397 157.882 224.606 157.778 224.815 157.656 225.024 157.551 225.425 157.342 225.843 157.133 226.244 156.924 226.488 156.802 226.732 156.697 226.976 156.575 227.377 156.384 227.795 156.192 228.196 156.018 228.422 155.913 228.649 155.808 228.893 155.721 229.485 155.477 230.078 155.251 230.67 155.024 230.775 154.989 230.88 154.955 231.002 154.902 231.577 154.693 232.169 154.501 232.779 154.31 233.006 154.24 233.232 154.17 233.459 154.101 233.929 153.961 234.382 153.822 234.836 153.717 235.08 153.647 235.306 153.595 235.55 153.525 236.056 153.403 236.578 153.281 237.101 153.177 237.275 153.142 237.45 153.09 237.624 153.055 238.321 152.915 239.001 152.794 239.715 152.672 239.89 152.637 240.064 152.619 240.256 152.602 240.796 152.532 241.336 152.462 241.876 152.393 242.12 152.358 242.347 152.34 242.608 152.323 243.131 152.271 243.636 152.236 244.142 152.201 244.368 152.201 244.595 152.166 244.822 152.166 245.553 152.131 246.285 152.114 247.017 152.114L247.017 152.114C247.749 152.114 248.499 152.131 249.213 152.166 249.422 152.166 249.649 152.184 249.876 152.201 250.398 152.236 250.921 152.271 251.444 152.323 251.671 152.358 251.915 152.375 252.141 152.393 252.699 152.462 253.239 152.515 253.797 152.602 253.954 152.619 254.128 152.654 254.302 152.672 255.017 152.776 255.714 152.898 256.411 153.055 256.568 153.09 256.742 153.125 256.899 153.159 257.439 153.281 257.962 153.403 258.502 153.543 258.729 153.595 258.955 153.647 259.182 153.717 259.67 153.839 260.14 153.996 260.628 154.118 260.837 154.188 261.047 154.24 261.256 154.31 261.901 154.519 262.528 154.728 263.155 154.955 263.19 154.955 263.208 154.955 263.242 154.989 263.887 155.233 264.532 155.477 265.159 155.756 265.369 155.843 265.56 155.93 265.787 156.018 266.223 156.209 266.658 156.401 267.094 156.61 267.32 156.715 267.53 156.819 267.756 156.924 268.192 157.15 268.645 157.377 269.081 157.604 269.255 157.691 269.429 157.778 269.603 157.882 270.196 158.213 270.771 158.545 271.346 158.893 271.521 158.998 271.677 159.102 271.852 159.207 272.27 159.468 272.671 159.73 273.089 159.991 273.298 160.13 273.525 160.287 273.734 160.427 274.1 160.671 274.448 160.932 274.797 161.194 275.006 161.35 275.215 161.49 275.424 161.647 275.86 161.978 276.278 162.309 276.696 162.657 276.871 162.797 277.028 162.936 277.202 163.058 277.638 163.424 278.073 163.808 278.509 164.191 278.718 164.365 278.91 164.557 279.101 164.749 279.398 165.028 279.694 165.306 279.99 165.603 280.199 165.812 280.409 166.004 280.618 166.23 280.896 166.526 281.193 166.823 281.472 167.119 281.663 167.311 281.855 167.52 282.029 167.711 282.448 168.182 282.866 168.653 283.267 169.158 283.441 169.367 283.615 169.576 283.789 169.803 284.051 170.116 284.295 170.43 284.539 170.761 284.731 171.005 284.922 171.267 285.097 171.511 285.323 171.807 285.532 172.103 285.741 172.417 285.916 172.678 286.09 172.94 286.282 173.201 286.508 173.55 286.735 173.916 286.961 174.264 287.188 174.63 287.414 174.979 287.624 175.345 287.85 175.746 288.094 176.129 288.303 176.53 288.46 176.809 288.617 177.105 288.756 177.384 288.931 177.697 289.105 178.029 289.262 178.36 289.419 178.656 289.558 178.952 289.697 179.248 289.854 179.58 290.011 179.911 290.151 180.259 290.272 180.556 290.412 180.834 290.534 181.131 290.778 181.706 291.004 182.281 291.214 182.856L291.214 182.856C292.399 186.063 293.253 189.426 293.723 192.929 295.013 192.859 296.337 192.807 297.662 192.807 300.433 192.807 303.169 192.999 305.853 193.347 306.288 193.4 306.724 193.452 307.142 193.504 307.7 193.591 308.275 193.696 308.833 193.8 309.286 193.87 309.739 193.957 310.192 194.044 310.732 194.149 311.273 194.288 311.813 194.41 312.283 194.515 312.737 194.62 313.19 194.724 313.73 194.846 314.253 195.003 314.758 195.142 315.211 195.264 315.664 195.386 316.135 195.526 316.64 195.683 317.163 195.857 317.669 196.014 318.122 196.171 318.575 196.31 319.028 196.484 319.533 196.659 320.021 196.85 320.509 197.042 320.962 197.216 321.415 197.39 321.851 197.565 322.339 197.756 322.81 197.966 323.28 198.175 323.733 198.366 324.169 198.576 324.605 198.767 325.075 198.994 325.546 199.22 325.999 199.447 326.435 199.656 326.87 199.883 327.306 200.109 327.759 200.336 328.212 200.58 328.648 200.824 329.084 201.068 329.502 201.312 329.92 201.556 330.356 201.817 330.791 202.061 331.21 202.322 331.628 202.584 332.046 202.863 332.464 203.124 332.883 203.403 333.301 203.664 333.702 203.943 334.12 204.222 334.521 204.518 334.939 204.815 335.323 205.093 335.723 205.39 336.124 205.669 336.543 205.982 336.943 206.313 337.344 206.627 337.71 206.923 338.076 207.202 338.442 207.516 338.86 207.864 339.279 208.23 339.679 208.596 340.011 208.875 340.359 209.171 340.69 209.468 341.143 209.886 341.579 210.304 342.015 210.74 342.294 211.001 342.572 211.263 342.834 211.524 343.531 212.221 344.211 212.936 344.873 213.65 345.047 213.842 345.221 214.051 345.396 214.243 345.884 214.783 346.372 215.323 346.825 215.881 347.069 216.177 347.295 216.474 347.539 216.77 347.923 217.24 348.306 217.728 348.672 218.216 348.933 218.547 349.143 218.879 349.387 219.227 349.735 219.698 350.084 220.168 350.415 220.656 350.659 221.005 350.885 221.371 351.112 221.719 351.426 222.19 351.739 222.678 352.036 223.166 352.262 223.532 352.471 223.898 352.698 224.281 352.977 224.769 353.273 225.257 353.552 225.762 353.761 226.146 353.97 226.529 354.179 226.913 354.441 227.418 354.702 227.923 354.946 228.429 355.138 228.83 355.329 229.213 355.521 229.614 355.765 230.137 355.992 230.642 356.218 231.165 356.392 231.566 356.567 231.967 356.724 232.385 356.95 232.908 357.159 233.448 357.351 233.988 357.508 234.389 357.665 234.807 357.804 235.226 357.996 235.766 358.187 236.324 358.362 236.864 358.501 237.282 358.641 237.7 358.763 238.119 358.937 238.676 359.094 239.251 359.233 239.826 359.355 240.245 359.46 240.663 359.564 241.081 359.704 241.674 359.843 242.266 359.965 242.859 360.052 243.26 360.157 243.678 360.226 244.096 360.348 244.706 360.453 245.334 360.558 245.961 360.627 246.362 360.697 246.763 360.749 247.146 360.854 247.808 360.924 248.488 361.011 249.168 361.046 249.534 361.098 249.882 361.133 250.248 361.202 251.015 361.255 251.799 361.307 252.583 361.324 252.845 361.342 253.124 361.359 253.402 361.412 254.466 361.446 255.529 361.446 256.609 361.446 257.69 361.412 258.753 361.359 259.816 361.359 260.095 361.324 260.356 361.307 260.617ZM247 225.675C249.056 225.675 250.729 224.002 250.729 221.946 250.729 219.889 249.056 218.216 247 218.216 244.944 218.216 243.271 219.889 243.271 221.946 243.271 224.002 244.944 225.675 247 225.675ZM262.179 212.709 253.134 212.709 253.134 233.309 250.05 233.309C249.178 232.646 248.098 232.245 246.93 232.245 245.763 232.245 244.665 232.646 243.811 233.309L240.848 233.309 240.848 212.709 231.803 212.709 231.803 275.588 228.109 275.588 228.109 284.807 265.874 284.807 265.874 275.588 262.162 275.588 262.162 212.709ZM253.152 275.588 240.866 275.588 240.866 269.715 253.152 269.715 253.152 275.588ZM253.152 265.671 240.866 265.671 240.866 237.108 244.334 237.108C244.49 235.783 245.588 234.755 246.948 234.755 248.307 234.755 249.422 235.783 249.562 237.108L253.152 237.108 253.152 265.671ZM262.092 199.534 254.598 199.534 254.598 193.574 252.525 193.574 252.525 189.775 254.511 189.775 254.511 186.341 252.525 186.341 252.525 185.801C252.525 183.03 250.485 180.747 247.819 180.364L247.819 170.814 246.198 170.814 246.198 180.364C243.532 180.765 241.493 183.048 241.493 185.801L241.493 186.341 239.506 186.341 239.506 189.775 241.493 189.775 241.493 193.574 239.419 193.574 239.419 199.534 231.908 199.534 231.908 205.128 228.213 205.128 228.213 208.736 265.787 208.736 265.787 205.128 262.075 205.128 262.075 199.534ZM245.292 199.534 243.166 199.534 243.166 193.574 245.292 193.574 245.292 199.534ZM250.851 199.534 248.725 199.534 248.725 193.574 250.851 193.574 250.851 199.534ZM297.644 198.14 289.262 198.14C288.687 175.275 270.004 156.924 247.017 156.924 224.031 156.924 205.331 175.275 204.756 198.14L196.373 198.14C164.097 198.14 137.921 224.316 137.921 256.592 137.921 288.867 164.08 315.044 196.373 315.044L204.756 315.044C205.331 337.891 224.013 356.242 247.017 356.242 270.022 356.242 288.687 337.891 289.262 315.044L297.644 315.044C329.92 315.044 356.096 288.885 356.096 256.592 356.096 224.299 329.92 198.14 297.644 198.14ZM196.791 275.413C193.393 272.468 189.21 270.412 184.575 269.61L208.084 269.61C203.431 269.61 199.318 271.91 196.774 275.413ZM199.615 278.289C201.392 275.466 204.529 273.566 208.119 273.566 213.679 273.566 218.175 278.062 218.175 283.622L218.175 283.622 218.175 295.019 205.47 295.019C205.47 294.845 205.47 294.671 205.47 294.479 205.47 288.31 203.257 282.663 199.58 278.272ZM218.192 298.975 218.192 323.13 212.79 323.13 212.79 307.55 212.79 307.55C212.79 304.273 211.605 301.276 209.618 298.975L218.192 298.975ZM247 352.46C230.339 352.46 216.171 341.882 210.803 327.069L283.197 327.069C277.829 341.882 263.643 352.46 247 352.46ZM236.927 323.13 236.927 303.228C237.781 298.156 242.085 294.305 247.261 294.305 252.019 294.305 256.027 297.599 257.282 302.095L257.282 323.13 236.927 323.13ZM281.21 307.55 281.21 307.55 281.21 323.13 275.633 323.13 275.633 298.975 284.365 298.975C282.395 301.293 281.21 304.291 281.21 307.55ZM288.477 294.497C288.477 294.671 288.477 294.845 288.477 295.037L275.616 295.037 275.616 283.639 275.616 283.639C275.616 278.08 280.112 273.584 285.672 273.584 289.314 273.584 292.486 275.518 294.246 278.411 290.621 282.785 288.443 288.379 288.443 294.497ZM297.104 275.501C294.577 271.945 290.429 269.628 285.741 269.61L309.408 269.61C304.737 270.412 300.52 272.503 297.104 275.501ZM342.224 236.376C328.683 236.376 317.285 245.595 313.974 258.108L263.539 258.108 263.539 262.064 313.224 262.064C313.085 263.232 312.998 264.417 312.998 265.619 312.998 265.637 312.998 265.654 312.998 265.689L263.521 265.689 263.521 269.645 285.672 269.645C277.951 269.645 271.695 275.919 271.695 283.657L271.695 283.657 271.695 323.165 266.24 323.165 266.24 289.042 269.603 289.042 269.603 286.393 257.282 286.393 257.282 295.786C255.574 293.834 253.326 292.388 250.799 291.673L250.799 288.676 252.228 288.676 252.228 286.34 241.719 286.34 241.719 288.676 243.149 288.676 243.149 291.83C240.691 292.632 238.548 294.131 236.909 296.1L236.909 286.445 224.379 286.445 224.379 289.042 227.777 289.042 227.777 323.165 222.096 323.165 222.096 283.657 222.096 283.657C222.096 275.936 215.84 269.662 208.119 269.645L230.409 269.645 230.409 265.689 180.95 265.689 180.95 265.619C180.95 264.417 180.863 263.232 180.723 262.064L230.409 262.064 230.409 258.108 179.974 258.108C176.663 245.595 165.265 236.376 151.724 236.376 149.72 236.376 147.75 236.585 145.868 236.968 153.728 216.77 173.334 202.444 196.303 202.444L208.45 202.444 208.45 199.203 208.45 199.203C208.45 177.941 225.704 160.688 246.965 160.688 268.227 160.688 285.48 177.924 285.48 199.203L285.48 202.444 297.627 202.444C320.596 202.444 340.22 216.77 348.062 236.968 346.163 236.585 344.193 236.376 342.189 236.376ZM243.602 332.367 236.665 332.367 235.027 337.386 240.604 337.386 240.378 339.372 234.313 339.372 233.563 341.673 242.887 341.673 243.602 332.349ZM240.918 335.678 237.781 335.678 238.217 334.005 241.249 333.97 240.935 335.678ZM263.626 339.233 264.793 341.708 268.244 341.551 266.902 339.407 268.488 339.32 267.129 337.002 265.212 337.002 262.876 332.384 260.489 332.384 258.049 336.758 258.92 339.233 263.626 339.233ZM261.639 334.841 262.598 336.915 260.611 336.915 261.657 334.841ZM232.919 332.367 230.217 332.367 226 341.69 229.747 341.69 232.919 332.367ZM246.547 341.69 256.027 341.69 255.417 339.303 251.671 339.303 254.616 336.671 253.622 332.367 246.617 332.367 246.564 335.957 249.266 335.957 249.039 334.528 251.583 334.528 251.74 336.113 246.651 339.216 246.547 341.69Z" fill="#00561F"/></g></svg>